ffmpeg started on 2025-06-05 at 19:26:16
Report written to "D:\Convert\FFMetrics\reports\psnr_report-6.txt"
Log level: 32
Command line:
ffmpeg -hide_banner -nostdin -i "G:\\\xc0\xed\xe8\xec\xe5\\\xce\xed\xe3\xee\xe8\xed\xe3\xe8\\!_36_\xce\xf1\xe5\xed\xfc_2024\\DreamCast\\\xca\xee\xec\xef\xe0\xed\xe8\xff \xab\xcc\xe0\xe3\xe8-\xcb\xfe\xec\xfc\xe5\xf0\xbb\\[DC] Kabushikigaisha Magilumiere - 12_Telegram_HEVC.mkv" -i "G:\\\xc0\xed\xe8\xec\xe5\\\xce\xed\xe3\xee\xe8\xed\xe3\xe8\\!_36_\xce\xf1\xe5\xed\xfc_2024\\DreamCast\\\xca\xee\xec\xef\xe0\xed\xe8\xff \xab\xcc\xe0\xe3\xe8-\xcb\xfe\xec\xfc\xe5\xf0\xbb\\[DC] Kabushikigaisha Magilumiere - 12_Telegram.mp4" -lavfi "[0:v]settb=AVTB,setpts=PTS-STARTPTS,format=pix_fmts=yuv420p10,fps=24000/1001,scale=1920:1080:flags=bicubic[main];[1:v]settb=AVTB,setpts=PTS-STARTPTS,format=pix_fmts=yuv420p,fps=24000/1001,scale=1920:1080:flags=bicubic[ref];[main][ref]psnr=eof_action=endall:stats_file='D\\:/Convert/FFMetrics/logs/psnr_logfile-6.txt'" -f null -
Input #0, matroska,webm, from 'G:\Аниме\Онгоинги\!_36_Осень_2024\DreamCast\Компания «Маги-Люмьер»\[DC] Kabushikigaisha Magilumiere - 12_Telegram_HEVC.mkv':
  Metadata:
    COMPATIBLE_BRANDS: isomiso2avc1mp41
    MAJOR_BRAND     : isom
    MINOR_VERSION   : 512
    ENCODER         : Lavf61.7.100
  Duration: 00:24:06.61, start: -0.021000, bitrate: 2270 kb/s
  Stream #0:0: Video: hevc (Main 10), yuv420p10le(tv, bt709, progressive), 1920x1080 [SAR 1:1 DAR 16:9], 23.98 fps, 23.98 tbr, 1k tbn (default)
      Metadata:
        HANDLER_NAME    : VideoHandler
        VENDOR_ID       : [0][0][0][0]
        ENCODER         : Lavc61.19.100 libx265
        BPS             : 2073103
        DURATION        : 00:24:06.569708333
        NUMBER_OF_FRAMES: 34683
        NUMBER_OF_BYTES : 374860857
        _STATISTICS_WRITING_APP: mkvpropedit v66.0.0 ('Josie') 64-bit
        _STATISTICS_WRITING_DATE_UTC: 2025-05-31 09:12:52
        _STATISTICS_TAGS: BPS DURATION NUMBER_OF_FRAMES NUMBER_OF_BYTES
  Stream #0:1: Audio: aac (LC), 48000 Hz, stereo, fltp (default)
      Metadata:
        HANDLER_NAME    : SoundHandler
        VENDOR_ID       : [0][0][0][0]
        ENCODER         : Lavc61.19.100 aac
        BPS             : 193367
        DURATION        : 00:24:06.613000000
        NUMBER_OF_FRAMES: 67811
        NUMBER_OF_BYTES : 34965957
        _STATISTICS_WRITING_APP: mkvpropedit v66.0.0 ('Josie') 64-bit
        _STATISTICS_WRITING_DATE_UTC: 2025-05-31 09:12:52
        _STATISTICS_TAGS: BPS DURATION NUMBER_OF_FRAMES NUMBER_OF_BYTES
Input #1, mov,mp4,m4a,3gp,3g2,mj2, from 'G:\Аниме\Онгоинги\!_36_Осень_2024\DreamCast\Компания «Маги-Люмьер»\[DC] Kabushikigaisha Magilumiere - 12_Telegram.mp4':
  Metadata:
    major_brand     : isom
    minor_version   : 512
    compatible_brands: isomiso2avc1mp41
    encoder         : Lavf61.7.100
  Duration: 00:24:06.59, start: 0.000000, bitrate: 3838 kb/s
  Stream #1:0[0x1](und): Video: h264 (High) (avc1 / 0x31637661), yuv420p(tv, bt709, progressive), 1920x1080 [SAR 1:1 DAR 16:9], 3690 kb/s, 23.98 fps, 23.98 tbr, 24k tbn (default)
      Metadata:
        handler_name    : VideoHandler
        vendor_id       : [0][0][0][0]
        encoder         : Lavc61.19.101 h264_qsv
  Stream #1:1[0x2](und): Audio: aac (HE-AACv2) (mp4a / 0x6134706D), 48000 Hz, stereo, fltp, 144 kb/s (default)
      Metadata:
        handler_name    : SoundHandler
        vendor_id       : [0][0][0][0]
Stream mapping:
  Stream #0:0 (hevc) -> settb:default
  Stream #1:0 (h264) -> settb:default
  psnr:default -> Stream #0:0 (wrapped_avframe)
  Stream #0:1 -> #0:1 (aac (native) -> pcm_s16le (native))
Output #0, null, to 'pipe:':
  Metadata:
    COMPATIBLE_BRANDS: isomiso2avc1mp41
    MAJOR_BRAND     : isom
    MINOR_VERSION   : 512
    encoder         : Lavf61.7.100
  Stream #0:0: Video: wrapped_avframe, yuv420p10le(tv, bt709, progressive), 1920x1080 [SAR 1:1 DAR 16:9], q=2-31, 200 kb/s, 23.98 fps, 23.98 tbn
      Metadata:
        encoder         : Lavc61.19.100 wrapped_avframe
  Stream #0:1: Audio: pcm_s16le, 48000 Hz, stereo, s16, 1536 kb/s (default)
      Metadata:
        HANDLER_NAME    : SoundHandler
        VENDOR_ID       : [0][0][0][0]
        _STATISTICS_TAGS: BPS DURATION NUMBER_OF_FRAMES NUMBER_OF_BYTES
        BPS             : 193367
        DURATION        : 00:24:06.613000000
        NUMBER_OF_FRAMES: 67811
        NUMBER_OF_BYTES : 34965957
        _STATISTICS_WRITING_APP: mkvpropedit v66.0.0 ('Josie') 64-bit
        _STATISTICS_WRITING_DATE_UTC: 2025-05-31 09:12:52
        encoder         : Lavc61.19.100 pcm_s16le
frame=  167 fps=0.0 q=-0.0 size=N/A time=00:00:06.96 bitrate=N/A speed=13.3x    frame=  362 fps=351 q=-0.0 size=N/A time=00:00:15.09 bitrate=N/A speed=14.6x    frame=  590 fps=379 q=-0.0 size=N/A time=00:00:24.60 bitrate=N/A speed=15.8x    frame=  799 fps=385 q=-0.0 size=N/A time=00:00:33.32 bitrate=N/A speed=16.1x    frame=  983 fps=379 q=-0.0 size=N/A time=00:00:40.99 bitrate=N/A speed=15.8x    frame= 1138 fps=367 q=-0.0 size=N/A time=00:00:47.46 bitrate=N/A speed=15.3x    frame= 1330 fps=366 q=-0.0 size=N/A time=00:00:55.47 bitrate=N/A speed=15.3x    frame= 1549 fps=374 q=-0.0 size=N/A time=00:01:04.60 bitrate=N/A speed=15.6x    frame= 1764 fps=378 q=-0.0 size=N/A time=00:01:13.57 bitrate=N/A speed=15.8x    frame= 1954 fps=377 q=-0.0 size=N/A time=00:01:21.49 bitrate=N/A speed=15.7x    frame= 2160 fps=380 q=-0.0 size=N/A time=00:01:30.09 bitrate=N/A speed=15.8x    frame= 2372 fps=382 q=-0.0 size=N/A time=00:01:38.93 bitrate=N/A speed=15.9x    frame= 2561 fps=381 q=-0.0 size=N/A time=00:01:46.81 bitrate=N/A speed=15.9x    frame= 2749 fps=380 q=-0.0 size=N/A time=00:01:54.65 bitrate=N/A speed=15.9x    frame= 2951 fps=380 q=-0.0 size=N/A time=00:02:03.08 bitrate=N/A speed=15.9x    frame= 3154 fps=382 q=-0.0 size=N/A time=00:02:11.54 bitrate=N/A speed=15.9x    frame= 3352 fps=381 q=-0.0 size=N/A time=00:02:19.80 bitrate=N/A speed=15.9x    frame= 3547 fps=381 q=-0.0 size=N/A time=00:02:27.93 bitrate=N/A speed=15.9x    frame= 3737 fps=380 q=-0.0 size=N/A time=00:02:35.86 bitrate=N/A speed=15.9x    frame= 3927 fps=379 q=-0.0 size=N/A time=00:02:43.78 bitrate=N/A speed=15.8x    frame= 4115 fps=379 q=-0.0 size=N/A time=00:02:51.62 bitrate=N/A speed=15.8x    frame= 4308 fps=379 q=-0.0 size=N/A time=00:02:59.67 bitrate=N/A speed=15.8x    frame= 4493 fps=378 q=-0.0 size=N/A time=00:03:07.39 bitrate=N/A speed=15.8x    frame= 4695 fps=378 q=-0.0 size=N/A time=00:03:15.82 bitrate=N/A speed=15.8x    frame= 4941 fps=382 q=-0.0 size=N/A time=00:03:26.08 bitrate=N/A speed=15.9x    frame= 5183 fps=385 q=-0.0 size=N/A time=00:03:36.17 bitrate=N/A speed=16.1x    frame= 5418 fps=388 q=-0.0 size=N/A time=00:03:45.97 bitrate=N/A speed=16.2x    frame= 5687 fps=393 q=-0.0 size=N/A time=00:03:57.19 bitrate=N/A speed=16.4x    frame= 5977 fps=398 q=-0.0 size=N/A time=00:04:09.29 bitrate=N/A speed=16.6x    frame= 6223 fps=401 q=-0.0 size=N/A time=00:04:19.55 bitrate=N/A speed=16.7x    frame= 6458 fps=403 q=-0.0 size=N/A time=00:04:29.35 bitrate=N/A speed=16.8x    frame= 6724 fps=406 q=-0.0 size=N/A time=00:04:40.44 bitrate=N/A speed=16.9x    frame= 6964 fps=408 q=-0.0 size=N/A time=00:04:50.45 bitrate=N/A speed=  17x    frame= 7159 fps=407 q=-0.0 size=N/A time=00:04:58.58 bitrate=N/A speed=  17x    frame= 7368 fps=407 q=-0.0 size=N/A time=00:05:07.30 bitrate=N/A speed=  17x    frame= 7595 fps=408 q=-0.0 size=N/A time=00:05:16.77 bitrate=N/A speed=  17x    frame= 7839 fps=410 q=-0.0 size=N/A time=00:05:26.95 bitrate=N/A speed=17.1x    frame= 8079 fps=411 q=-0.0 size=N/A time=00:05:36.96 bitrate=N/A speed=17.2x    frame= 8284 fps=411 q=-0.0 size=N/A time=00:05:45.51 bitrate=N/A speed=17.1x    frame= 8439 fps=408 q=-0.0 size=N/A time=00:05:51.97 bitrate=N/A speed=  17x    frame= 8595 fps=406 q=-0.0 size=N/A time=00:05:58.48 bitrate=N/A speed=16.9x    frame= 8812 fps=406 q=-0.0 size=N/A time=00:06:07.53 bitrate=N/A speed=16.9x    frame= 9023 fps=406 q=-0.0 size=N/A time=00:06:16.33 bitrate=N/A speed=16.9x    frame= 9210 fps=405 q=-0.0 size=N/A time=00:06:24.13 bitrate=N/A speed=16.9x    frame= 9429 fps=405 q=-0.0 size=N/A time=00:06:33.26 bitrate=N/A speed=16.9x    frame= 9639 fps=405 q=-0.0 size=N/A time=00:06:42.02 bitrate=N/A speed=16.9x    frame= 9829 fps=405 q=-0.0 size=N/A time=00:06:49.95 bitrate=N/A speed=16.9x    frame=10054 fps=405 q=-0.0 size=N/A time=00:06:59.33 bitrate=N/A speed=16.9x    frame=10245 fps=405 q=-0.0 size=N/A time=00:07:07.30 bitrate=N/A speed=16.9x    frame=10449 fps=404 q=-0.0 size=N/A time=00:07:15.81 bitrate=N/A speed=16.9x    frame=10645 fps=404 q=-0.0 size=N/A time=00:07:23.98 bitrate=N/A speed=16.8x    frame=10859 fps=404 q=-0.0 size=N/A time=00:07:32.91 bitrate=N/A speed=16.9x    frame=11040 fps=403 q=-0.0 size=N/A time=00:07:40.46 bitrate=N/A speed=16.8x    frame=11248 fps=403 q=-0.0 size=N/A time=00:07:49.13 bitrate=N/A speed=16.8x    frame=11461 fps=403 q=-0.0 size=N/A time=00:07:58.01 bitrate=N/A speed=16.8x    frame=11663 fps=403 q=-0.0 size=N/A time=00:08:06.44 bitrate=N/A speed=16.8x    frame=11905 fps=404 q=-0.0 size=N/A time=00:08:16.53 bitrate=N/A speed=16.9x    frame=12107 fps=404 q=-0.0 size=N/A time=00:08:24.96 bitrate=N/A speed=16.9x    frame=12264 fps=402 q=-0.0 size=N/A time=00:08:31.51 bitrate=N/A speed=16.8x    frame=12523 fps=404 q=-0.0 size=N/A time=00:08:42.31 bitrate=N/A speed=16.8x    frame=12763 fps=405 q=-0.0 size=N/A time=00:08:52.32 bitrate=N/A speed=16.9x    frame=12986 fps=405 q=-0.0 size=N/A time=00:09:01.62 bitrate=N/A speed=16.9x    frame=13244 fps=407 q=-0.0 size=N/A time=00:09:12.38 bitrate=N/A speed=  17x    frame=13483 fps=408 q=-0.0 size=N/A time=00:09:22.35 bitrate=N/A speed=  17x    frame=13705 fps=408 q=-0.0 size=N/A time=00:09:31.61 bitrate=N/A speed=  17x    frame=13965 fps=410 q=-0.0 size=N/A time=00:09:42.45 bitrate=N/A speed=17.1x    frame=14177 fps=410 q=-0.0 size=N/A time=00:09:51.29 bitrate=N/A speed=17.1x    frame=14410 fps=410 q=-0.0 size=N/A time=00:10:01.01 bitrate=N/A speed=17.1x    frame=14601 fps=410 q=-0.0 size=N/A time=00:10:08.98 bitrate=N/A speed=17.1x    frame=14834 fps=410 q=-0.0 size=N/A time=00:10:18.70 bitrate=N/A speed=17.1x    frame=15035 fps=410 q=-0.0 size=N/A time=00:10:27.08 bitrate=N/A speed=17.1x    frame=15224 fps=409 q=-0.0 size=N/A time=00:10:34.96 bitrate=N/A speed=17.1x    frame=15477 fps=410 q=-0.0 size=N/A time=00:10:45.51 bitrate=N/A speed=17.1x    frame=15668 fps=410 q=-0.0 size=N/A time=00:10:53.48 bitrate=N/A speed=17.1x    frame=15837 fps=409 q=-0.0 size=N/A time=00:11:00.53 bitrate=N/A speed=17.1x    frame=16097 fps=410 q=-0.0 size=N/A time=00:11:11.37 bitrate=N/A speed=17.1x    frame=16296 fps=410 q=-0.0 size=N/A time=00:11:19.67 bitrate=N/A speed=17.1x    frame=16472 fps=409 q=-0.0 size=N/A time=00:11:27.01 bitrate=N/A speed=17.1x    frame=16648 fps=408 q=-0.0 size=N/A time=00:11:34.36 bitrate=N/A speed=  17x    frame=16836 fps=408 q=-0.0 size=N/A time=00:11:42.20 bitrate=N/A speed=  17x    frame=17032 fps=407 q=-0.0 size=N/A time=00:11:50.37 bitrate=N/A speed=  17x    frame=17297 fps=408 q=-0.0 size=N/A time=00:12:01.42 bitrate=N/A speed=  17x    frame=17481 fps=408 q=-0.0 size=N/A time=00:12:09.10 bitrate=N/A speed=  17x    frame=17650 fps=407 q=-0.0 size=N/A time=00:12:16.15 bitrate=N/A speed=  17x    frame=17854 fps=406 q=-0.0 size=N/A time=00:12:24.66 bitrate=N/A speed=  17x    frame=18074 fps=407 q=-0.0 size=N/A time=00:12:33.83 bitrate=N/A speed=  17x    frame=18293 fps=407 q=-0.0 size=N/A time=00:12:42.97 bitrate=N/A speed=  17x    frame=18472 fps=406 q=-0.0 size=N/A time=00:12:50.43 bitrate=N/A speed=16.9x    frame=18670 fps=406 q=-0.0 size=N/A time=00:12:58.69 bitrate=N/A speed=16.9x    frame=18861 fps=406 q=-0.0 size=N/A time=00:13:06.66 bitrate=N/A speed=16.9x    frame=19065 fps=406 q=-0.0 size=N/A time=00:13:15.16 bitrate=N/A speed=16.9x    frame=19270 fps=405 q=-0.0 size=N/A time=00:13:23.71 bitrate=N/A speed=16.9x    frame=19474 fps=405 q=-0.0 size=N/A time=00:13:32.22 bitrate=N/A speed=16.9x    frame=19665 fps=405 q=-0.0 size=N/A time=00:13:40.19 bitrate=N/A speed=16.9x    frame=19885 fps=405 q=-0.0 size=N/A time=00:13:49.37 bitrate=N/A speed=16.9x    frame=20099 fps=405 q=-0.0 size=N/A time=00:13:58.29 bitrate=N/A speed=16.9x    frame=20315 fps=405 q=-0.0 size=N/A time=00:14:07.30 bitrate=N/A speed=16.9x    frame=20535 fps=406 q=-0.0 size=N/A time=00:14:16.48 bitrate=N/A speed=16.9x    frame=20794 fps=407 q=-0.0 size=N/A time=00:14:27.28 bitrate=N/A speed=  17x    frame=21049 fps=407 q=-0.0 size=N/A time=00:14:37.91 bitrate=N/A speed=  17x    frame=21327 fps=409 q=-0.0 size=N/A time=00:14:49.51 bitrate=N/A speed=  17x    frame=21591 fps=410 q=-0.0 size=N/A time=00:15:00.52 bitrate=N/A speed=17.1x    frame=21814 fps=410 q=-0.0 size=N/A time=00:15:09.82 bitrate=N/A speed=17.1x    frame=22022 fps=410 q=-0.0 size=N/A time=00:15:18.50 bitrate=N/A speed=17.1x    frame=22253 fps=410 q=-0.0 size=N/A time=00:15:28.13 bitrate=N/A speed=17.1x    frame=22498 fps=411 q=-0.0 size=N/A time=00:15:38.35 bitrate=N/A speed=17.1x    frame=22741 fps=412 q=-0.0 size=N/A time=00:15:48.48 bitrate=N/A speed=17.2x    frame=22983 fps=412 q=-0.0 size=N/A time=00:15:58.58 bitrate=N/A speed=17.2x    frame=23222 fps=412 q=-0.0 size=N/A time=00:16:08.55 bitrate=N/A speed=17.2x    frame=23462 fps=413 q=-0.0 size=N/A time=00:16:18.56 bitrate=N/A speed=17.2x    frame=23714 fps=414 q=-0.0 size=N/A time=00:16:29.07 bitrate=N/A speed=17.2x    frame=23966 fps=414 q=-0.0 size=N/A time=00:16:39.58 bitrate=N/A speed=17.3x    frame=24141 fps=413 q=-0.0 size=N/A time=00:16:46.88 bitrate=N/A speed=17.2x    frame=24325 fps=413 q=-0.0 size=N/A time=00:16:54.55 bitrate=N/A speed=17.2x    frame=24503 fps=412 q=-0.0 size=N/A time=00:17:01.97 bitrate=N/A speed=17.2x    frame=24689 fps=412 q=-0.0 size=N/A time=00:17:09.73 bitrate=N/A speed=17.2x    frame=24868 fps=411 q=-0.0 size=N/A time=00:17:17.20 bitrate=N/A speed=17.2x    frame=25066 fps=411 q=-0.0 size=N/A time=00:17:25.46 bitrate=N/A speed=17.1x    frame=25248 fps=411 q=-0.0 size=N/A time=00:17:33.05 bitrate=N/A speed=17.1x    frame=25417 fps=410 q=-0.0 size=N/A time=00:17:40.10 bitrate=N/A speed=17.1x    frame=25602 fps=410 q=-0.0 size=N/A time=00:17:47.81 bitrate=N/A speed=17.1x    frame=25842 fps=410 q=-0.0 size=N/A time=00:17:57.82 bitrate=N/A speed=17.1x    frame=26007 fps=409 q=-0.0 size=N/A time=00:18:04.70 bitrate=N/A speed=17.1x    frame=26220 fps=409 q=-0.0 size=N/A time=00:18:13.59 bitrate=N/A speed=17.1x    frame=26486 fps=410 q=-0.0 size=N/A time=00:18:24.68 bitrate=N/A speed=17.1x    frame=26708 fps=410 q=-0.0 size=N/A time=00:18:33.94 bitrate=N/A speed=17.1x    frame=26948 fps=411 q=-0.0 size=N/A time=00:18:43.95 bitrate=N/A speed=17.1x    frame=27140 fps=410 q=-0.0 size=N/A time=00:18:51.96 bitrate=N/A speed=17.1x    frame=27346 fps=410 q=-0.0 size=N/A time=00:19:00.55 bitrate=N/A speed=17.1x    frame=27592 fps=411 q=-0.0 size=N/A time=00:19:10.81 bitrate=N/A speed=17.1x    frame=27860 fps=412 q=-0.0 size=N/A time=00:19:21.99 bitrate=N/A speed=17.2x    frame=28107 fps=412 q=-0.0 size=N/A time=00:19:32.29 bitrate=N/A speed=17.2x    frame=28383 fps=413 q=-0.0 size=N/A time=00:19:43.80 bitrate=N/A speed=17.2x    frame=28654 fps=414 q=-0.0 size=N/A time=00:19:55.11 bitrate=N/A speed=17.3x    frame=28936 fps=415 q=-0.0 size=N/A time=00:20:06.87 bitrate=N/A speed=17.3x    frame=29198 fps=416 q=-0.0 size=N/A time=00:20:17.79 bitrate=N/A speed=17.3x    frame=29458 fps=416 q=-0.0 size=N/A time=00:20:28.64 bitrate=N/A speed=17.4x    frame=29730 fps=417 q=-0.0 size=N/A time=00:20:39.98 bitrate=N/A speed=17.4x    frame=29980 fps=418 q=-0.0 size=N/A time=00:20:50.41 bitrate=N/A speed=17.4x    frame=30253 fps=418 q=-0.0 size=N/A time=00:21:01.80 bitrate=N/A speed=17.4x    frame=30494 fps=419 q=-0.0 size=N/A time=00:21:11.85 bitrate=N/A speed=17.5x    frame=30691 fps=418 q=-0.0 size=N/A time=00:21:20.07 bitrate=N/A speed=17.5x    frame=30858 fps=418 q=-0.0 size=N/A time=00:21:27.03 bitrate=N/A speed=17.4x    frame=30999 fps=417 q=-0.0 size=N/A time=00:21:32.91 bitrate=N/A speed=17.4x    frame=31153 fps=416 q=-0.0 size=N/A time=00:21:39.33 bitrate=N/A speed=17.3x    frame=31302 fps=415 q=-0.0 size=N/A time=00:21:45.55 bitrate=N/A speed=17.3x    frame=31459 fps=414 q=-0.0 size=N/A time=00:21:52.10 bitrate=N/A speed=17.3x    frame=31622 fps=414 q=-0.0 size=N/A time=00:21:58.90 bitrate=N/A speed=17.3x    frame=31771 fps=413 q=-0.0 size=N/A time=00:22:05.11 bitrate=N/A speed=17.2x    frame=31961 fps=413 q=-0.0 size=N/A time=00:22:13.04 bitrate=N/A speed=17.2x    frame=32136 fps=412 q=-0.0 size=N/A time=00:22:20.33 bitrate=N/A speed=17.2x    frame=32295 fps=411 q=-0.0 size=N/A time=00:22:26.97 bitrate=N/A speed=17.2x    frame=32464 fps=411 q=-0.0 size=N/A time=00:22:34.01 bitrate=N/A speed=17.1x    frame=32639 fps=410 q=-0.0 size=N/A time=00:22:41.31 bitrate=N/A speed=17.1x    frame=32829 fps=410 q=-0.0 size=N/A time=00:22:49.24 bitrate=N/A speed=17.1x    frame=33094 fps=411 q=-0.0 size=N/A time=00:23:00.29 bitrate=N/A speed=17.1x    frame=33354 fps=411 q=-0.0 size=N/A time=00:23:11.13 bitrate=N/A speed=17.2x    frame=33586 fps=412 q=-0.0 size=N/A time=00:23:20.81 bitrate=N/A speed=17.2x    frame=33861 fps=412 q=-0.0 size=N/A time=00:23:32.28 bitrate=N/A speed=17.2x    frame=34137 fps=413 q=-0.0 size=N/A time=00:23:43.79 bitrate=N/A speed=17.2x    frame=34399 fps=414 q=-0.0 size=N/A time=00:23:54.72 bitrate=N/A speed=17.3x    frame=34652 fps=414 q=-0.0 size=N/A time=00:24:05.27 bitrate=N/A speed=17.3x    [Parsed_psnr_10 @ 0000017462717680] PSNR y:48.085783 u:48.705848 v:49.072928 average:48.336345 min:39.902751 max:inf
[out#0/null @ 000001745fdf4780] video:14903KiB audio:271244KiB subtitle:0KiB other streams:0KiB global headers:0KiB muxing overhead: unknown
frame=34683 fps=414 q=-0.0 Lsize=N/A time=00:24:06.57 bitrate=N/A speed=17.3x    
